<svg width="16" height="17" viewBox="0 0 16 17" fill="none" xmlns="http://www.w3.org/2000/svg">
<path d="M8 12.075C7.86667 12.075 7.74167 12.0542 7.625 12.0125C7.50833 11.9708 7.4 11.9 7.3 11.8L3.7 8.2C3.5 8 3.40417 7.76667 3.4125 7.5C3.42083 7.23333 3.51667 7 3.7 6.8C3.9 6.6 4.1375 6.49583 4.4125 6.4875C4.6875 6.47917 4.925 6.575 5.125 6.775L7 8.65V1.5C7 1.21667 7.09583 0.979167 7.2875 0.7875C7.47917 0.595833 7.71667 0.5 8 0.5C8.28333 0.5 8.52083 0.595833 8.7125 0.7875C8.90417 0.979167 9 1.21667 9 1.5V8.65L10.875 6.775C11.075 6.575 11.3125 6.47917 11.5875 6.4875C11.8625 6.49583 12.1 6.6 12.3 6.8C12.4833 7 12.5792 7.23333 12.5875 7.5C12.5958 7.76667 12.5 8 12.3 8.2L8.7 11.8C8.6 11.9 8.49167 11.9708 8.375 12.0125C8.25833 12.0542 8.13333 12.075 8 12.075ZM2 16.5C1.45 16.5 0.979167 16.3042 0.5875 15.9125C0.195833 15.5208 0 15.05 0 14.5V12.5C0 12.2167 0.0958333 11.9792 0.2875 11.7875C0.479167 11.5958 0.716667 11.5 1 11.5C1.28333 11.5 1.52083 11.5958 1.7125 11.7875C1.90417 11.9792 2 12.2167 2 12.5V14.5H14V12.5C14 12.2167 14.0958 11.9792 14.2875 11.7875C14.4792 11.5958 14.7167 11.5 15 11.5C15.2833 11.5 15.5208 11.5958 15.7125 11.7875C15.9042 11.9792 16 12.2167 16 12.5V14.5C16 15.05 15.8042 15.5208 15.4125 15.9125C15.0208 16.3042 14.55 16.5 14 16.5H2Z" fill="#C63C91"/>
</svg>
